# Blender 3.1.0
# www.blender.org
mtllib map_floor.mtl
o Plane.003
v 0.000145 -0.000000 0.103036
v 2.622743 -0.000000 0.103036
v 2.622743 0.000000 -2.896964
v 0.000145 0.000000 -2.896964
v 4.704920 -0.000000 0.103036
v 4.704920 0.000000 -2.896964
v 2.622743 -0.000000 1.776943
v 4.704920 -0.000000 1.776943
v 2.622743 -0.000002 3.859120
v 4.704920 -0.000002 3.859120
v 8.796766 -0.000002 3.859120
v 8.796766 -0.000000 1.776943
v 16.185917 -0.000000 1.776943
v 16.185917 -0.000002 3.859120
v 18.779461 -0.000002 3.859120
v 18.779461 -0.000000 1.776943
v 9.270036 -0.000002 3.859120
v 8.796766 -0.000002 6.847658
v 9.270036 -0.000002 6.847658
v 14.081721 -0.000002 3.859120
v 14.081721 -0.000002 6.847658
v 16.185917 -0.000002 6.847658
v 11.686204 -0.000000 1.776943
v 11.686204 -0.000002 3.859120
v 14.081721 -0.000000 1.776943
v 18.779461 -0.000002 6.847658
v 9.270036 -0.000000 1.776943
v 11.686204 -0.000002 6.847658
v 9.270036 -0.000000 0.257376
v 11.686204 -0.000000 0.257376
v 11.686204 0.000000 -2.867128
v 9.270036 0.000000 -2.867128
v 16.185917 -0.000000 0.257376
v 14.081721 -0.000000 0.257376
v 16.185917 0.000000 -2.867128
v 13.431987 0.000000 -2.867128
v 18.779461 -0.000000 0.257376
v 18.779461 0.000000 -2.867128
v 9.270036 -0.000002 7.204894
v 11.686204 -0.000002 7.204894
v 9.270036 -0.000004 9.501412
v 11.686204 -0.000004 9.501412
v 8.796766 -0.000002 7.204894
v 8.796766 -0.000004 9.501412
v 12.672856 -0.000004 9.501412
v 12.672856 -0.000002 7.204894
v 15.598792 -0.000002 7.204894
v 15.598792 -0.000004 9.501412
v 17.538074 -0.000004 9.501412
v 17.538074 -0.000002 7.204894
v 12.672856 -0.000004 9.824627
v 15.598792 -0.000004 9.824627
v 12.672856 -0.000004 12.104135
v 15.598792 -0.000004 12.104135
v 10.512427 -0.000004 12.104135
v 10.512427 -0.000004 9.824627
v 10.155191 -0.000004 9.824627
v 10.155191 -0.000004 12.104135
v 17.538074 -0.000004 9.824627
v 17.538074 -0.000004 12.104135
v 15.598792 -0.000004 12.427347
v 17.538074 -0.000004 12.427347
v 10.512427 -0.000004 12.427347
v 12.672856 -0.000004 12.427347
v 10.512427 -0.000006 15.489373
v 12.672856 -0.000006 15.489373
v 15.598792 -0.000006 15.489373
v 17.538074 -0.000006 15.489373
v 14.135825 -0.000006 15.489373
v 14.135825 -0.000004 12.427347
v 8.796766 -0.000004 12.427347
v 8.796766 -0.000006 15.489373
v 12.672856 -0.000006 16.900352
v 14.135825 -0.000006 16.900352
v 8.796766 -0.000006 16.900352
v 10.512427 -0.000006 16.900352
v 14.135825 -0.000008 21.645065
v 12.672856 -0.000008 21.645065
v 12.672856 -0.000008 22.573673
v 14.135825 -0.000008 22.573673
v 10.512427 -0.000008 21.645065
v 10.512427 -0.000008 22.573673
v 8.796766 -0.000008 21.645065
v 5.357499 -0.000008 21.645065
v 5.357499 -0.000008 22.573673
v 8.796766 -0.000008 22.573673
v 8.796766 -0.000006 18.801208
v 10.512427 -0.000006 18.801208
v 5.357499 -0.000006 16.900352
v 5.357499 -0.000006 18.801208
v 12.672856 -0.000006 18.801208
v 14.135825 -0.000006 18.801208
v 5.038538 -0.000006 18.801208
v 5.038538 -0.000008 21.645065
v 18.779461 0.000002 -4.036653
v 16.185917 0.000002 -4.036653
v 13.431987 0.000002 -4.036653
v 18.779461 0.000002 -6.375699
v 16.185917 0.000002 -6.375699
v 13.431987 0.000002 -6.375699
v 19.251995 0.000002 -4.036653
v 19.251995 0.000002 -6.375699
v 20.681412 0.000002 -4.036653
v 20.681412 0.000002 -6.375699
v 20.681412 0.000002 -7.202634
v 19.251995 0.000002 -7.202634
v 18.779461 0.000004 -9.494428
v 16.185917 0.000004 -9.494428
v 14.523541 0.000004 -9.494428
v 12.380596 0.000002 -7.339668
v 12.380596 0.000002 -6.375699
v 11.317393 0.000004 -11.323137
v 11.317393 0.000002 -8.785625
v 7.275518 0.000004 -11.323137
v 7.275518 0.000002 -8.785625
v 5.830243 0.000004 -11.739573
v 5.830243 0.000002 -8.785625
v 3.772561 0.000004 -13.135857
v 3.772561 0.000002 -8.785625
v 2.915194 0.000006 -15.414005
v 2.915194 0.000002 -8.785625
v 0.000145 0.000002 -8.785625
v 0.000145 0.000004 -14.479230
v -2.914903 0.000004 -13.544456
v -2.914903 0.000002 -8.785625
v 2.915194 0.000006 -17.961609
v 0.000145 0.000006 -17.961609
v -2.914903 0.000006 -17.961609
v -2.914903 0.000002 -6.989237
v 0.000145 0.000002 -6.989237
v -5.570031 0.000002 -6.989237
v -5.570031 0.000002 -8.785625
v -8.712338 0.000002 -8.785625
v -8.712338 0.000002 -6.989237
v -5.570031 0.000000 -0.675095
v -5.570031 -0.000000 0.721245
v -5.570031 -0.000000 2.117585
v -2.914903 -0.000000 2.117585
v 0.000145 -0.000000 2.117585
v -2.914903 -0.000002 6.350529
v 0.000145 -0.000002 6.350529
v 0.000145 -0.000002 8.420213
v 0.000145 -0.000004 9.848586
v 3.556994 -0.000004 9.848586
v 3.556994 -0.000002 8.420213
v 5.085557 -0.000004 9.848586
v 5.085557 -0.000002 8.420213
v 3.556994 -0.000004 13.640598
v 5.085557 -0.000004 13.640598
v 2.087222 -0.000006 15.580697
v 5.085557 -0.000006 15.580697
v -5.531097 -0.000002 6.350529
v -5.531097 -0.000004 9.848586
v -2.914903 -0.000004 9.848586
v -7.613275 -0.000004 9.848586
v -8.103200 -0.000004 11.297946
v -5.531097 -0.000004 11.297946
v -8.103200 -0.000004 13.523016
v -5.531097 -0.000004 13.523016
v -7.613275 -0.000002 6.350529
v -5.531097 -0.000006 15.580697
v -5.531097 -0.000006 19.197968
v -0.301103 -0.000006 19.313187
v -0.301104 -0.000006 15.580697
v -8.103200 -0.000006 15.580697
v -11.226465 -0.000002 6.350529
v -11.226465 -0.000004 9.848586
v -15.402314 -0.000006 16.376823
v -15.402314 -0.000004 13.029010
v -17.758785 -0.000004 13.029010
v -17.758785 -0.000006 16.376823
v -13.247401 -0.000006 16.376823
v -13.247401 -0.000006 19.197968
v -8.103200 -0.000006 19.197968
v -11.226465 -0.000004 11.297946
v -0.301103 -0.000006 20.589027
v 0.454952 -0.000006 20.589027
v 2.439598 -0.000008 22.573673
v 5.038538 -0.000008 22.573673
v -13.247401 -0.000004 13.523016
v -13.574018 -0.000006 16.376823
v -13.574018 -0.000006 19.197968
v -17.758785 -0.000006 19.197968
v -15.402314 -0.000006 19.197968
v -15.402314 -0.000004 11.334689
v -15.402314 -0.000002 3.842934
v -18.901943 -0.000002 3.842934
v -17.758785 -0.000004 11.334689
v -21.127014 -0.000002 3.842934
v -21.127014 -0.000004 11.334689
v -13.574018 -0.000004 13.029010
v -18.901943 0.000000 -2.811869
v -21.127014 0.000000 -2.811869
v -18.419300 0.000004 -9.602165
v -18.309952 0.000004 -11.140578
v -21.127014 0.000004 -11.140578
v -21.127014 0.000004 -9.602164
v -17.336651 0.000004 -9.602164
v -14.023114 0.000004 -9.602164
v -14.023114 0.000004 -11.140578
v -17.336651 0.000004 -11.140578
v -17.336651 0.000004 -14.120949
v -18.309952 0.000004 -14.120949
v -14.488542 0.000004 -14.120949
v -18.701885 0.000002 -5.626446
v -17.336651 0.000002 -5.626446
v -17.336651 0.000002 -6.016788
v -18.674141 0.000002 -6.016788
v -14.023114 0.000002 -5.626446
v -14.023114 0.000002 -6.016788
v -21.127014 0.000002 -6.016788
v -21.127014 0.000002 -5.626446
v -18.741604 0.000002 -5.067670
v -21.127014 0.000002 -5.067669
v -17.336651 0.000002 -5.067669
v -14.023114 0.000002 -5.067669
v -10.348683 0.000002 -5.067669
v -10.348683 0.000002 -5.626446
v -14.023114 0.000000 -2.811869
v -10.348683 0.000000 -2.811869
v -17.336651 0.000000 -2.811869
v -9.797519 0.000000 -2.811869
v -9.797519 0.000002 -5.067669
v -7.973426 0.000000 -2.811869
v -6.960042 0.000000 -2.811869
v -6.960042 0.000002 -5.067669
v -7.973426 0.000002 -5.067669
v -9.403680 0.000002 -5.067669
v -9.403680 0.000002 -5.626446
v -9.797519 0.000002 -5.626446
v -9.426811 0.000004 -9.887954
v -8.712338 0.000004 -9.887954
v -8.712338 0.000004 -14.120949
v -12.978761 0.000004 -14.120949
v -12.978761 0.000004 -13.406476
v -12.978761 0.000004 -10.568999
v -12.978761 0.000004 -9.918886
v -12.264287 0.000004 -9.918886
v -9.426811 0.000004 -9.602164
v -12.264287 0.000004 -9.602164
v -13.267814 0.000004 -13.406476
v -13.267814 0.000004 -10.568999
v -13.267814 0.000004 -9.602164
v -13.267814 0.000004 -9.918886
v -13.267814 0.000004 -14.120949
v -8.712338 0.000004 -9.602164
v -12.978761 0.000004 -9.602164
v -8.712338 0.000002 -6.016788
v -14.488542 0.000006 -15.517232
v -17.336651 0.000006 -15.517232
v -12.920785 0.000006 -16.889019
v -17.336651 0.000006 -16.889019
v -12.920785 0.000006 -19.779572
v -17.336651 0.000006 -19.779572
v -7.360146 0.000006 -16.889019
v -7.360146 0.000006 -19.779572
v -2.914903 0.000006 -19.020191
v -5.130991 0.000006 -20.245003
v -7.360146 0.000006 -20.245003
v -7.360146 0.000006 -16.031654
v -5.130991 0.000004 -13.544456
v -6.960042 0.000002 -5.626446
v -7.973426 0.000002 -5.626446
v -9.403680 0.000000 -2.811869
v -9.403680 0.000000 -2.138223
v -7.973426 0.000000 -2.138223
v -7.421945 0.000000 -0.675095
v -7.421945 -0.000000 0.721245
v -7.421945 -0.000000 2.117585
v -7.613275 -0.000000 0.721245
v -7.613275 -0.000000 2.117585
v -7.613275 0.000000 -2.138223
v -11.240896 0.000000 -2.138223
vn -0.0000 1.0000 -0.0000
vt 0.466914 0.506403
vt 0.466228 0.566706
vt 0.397249 0.565921
vt 0.397935 0.505620
vt 0.465685 0.614581
vt 0.396705 0.613797
vt 0.504717 0.567144
vt 0.504172 0.615019
vt 0.552594 0.567687
vt 0.552049 0.615564
vt 0.550978 0.709650
vt 0.503103 0.709105
vt 0.501171 0.879006
vt 0.549048 0.879548
vt 0.548368 0.939184
vt 0.500493 0.938638
vt 0.550855 0.720531
vt 0.619695 0.710430
vt 0.619572 0.721312
vt 0.549597 0.831168
vt 0.618313 0.831949
vt 0.617764 0.880330
vt 0.502348 0.775541
vt 0.550224 0.776086
vt 0.501720 0.830623
vt 0.617085 0.939966
vt 0.502978 0.719986
vt 0.618939 0.776868
vt 0.468039 0.719589
vt 0.467409 0.775144
vt 0.395565 0.774328
vt 0.396196 0.718773
vt 0.466231 0.878608
vt 0.466782 0.830224
vt 0.394389 0.877791
vt 0.395109 0.814470
vt 0.465553 0.938242
vt 0.393711 0.937425
vt 0.627786 0.721405
vt 0.627153 0.776960
vt 0.680590 0.722005
vt 0.679957 0.777561
vt 0.627909 0.710523
vt 0.680713 0.711123
vt 0.679699 0.800248
vt 0.626895 0.799648
vt 0.626131 0.866925
vt 0.678934 0.867525
vt 0.678429 0.912114
vt 0.625624 0.911514
vt 0.687132 0.800332
vt 0.686367 0.867608
vt 0.739545 0.800928
vt 0.738780 0.868204
vt 0.740110 0.751252
vt 0.687697 0.750657
vt 0.687790 0.742443
vt 0.740203 0.743038
vt 0.685860 0.912201
vt 0.738274 0.912795
vt 0.746212 0.868288
vt 0.745705 0.912878
vt 0.747543 0.751338
vt 0.746977 0.801012
vt 0.817949 0.752137
vt 0.817383 0.801814
vt 0.816617 0.869089
vt 0.816110 0.913681
vt 0.817000 0.835451
vt 0.746595 0.834651
vt 0.747990 0.711889
vt 0.818396 0.712689
vt 0.849826 0.802183
vt 0.849444 0.835820
vt 0.850840 0.713058
vt 0.850390 0.752506
vt 0.958540 0.837061
vt 0.958923 0.803422
vt 0.980274 0.803665
vt 0.979891 0.837304
vt 0.959487 0.753747
vt 0.980839 0.753990
vt 0.959937 0.714298
vt 0.960835 0.635218
vt 0.982186 0.635461
vt 0.981288 0.714541
vt 0.894547 0.713556
vt 0.894099 0.753003
vt 0.851739 0.633979
vt 0.895444 0.634474
vt 0.893533 0.802678
vt 0.893151 0.836317
vt 0.895530 0.627141
vt 0.960920 0.627885
vt 0.366820 0.937118
vt 0.367497 0.877485
vt 0.368218 0.814162
vt 0.313036 0.936507
vt 0.313716 0.876875
vt 0.314434 0.813552
vt 0.366694 0.947983
vt 0.312913 0.947373
vt 0.366322 0.980851
vt 0.312540 0.980239
vt 0.293524 0.980023
vt 0.293899 0.947157
vt 0.241327 0.935692
vt 0.242005 0.876058
vt 0.242439 0.837835
vt 0.292545 0.789124
vt 0.314710 0.789376
vt 0.201231 0.763636
vt 0.259575 0.764300
vt 0.202287 0.670701
vt 0.260632 0.671364
vt 0.193089 0.637360
vt 0.261010 0.638133
vt 0.161523 0.589683
vt 0.261549 0.590820
vt 0.109365 0.569373
vt 0.261772 0.571105
vt 0.262534 0.504079
vt 0.131620 0.502590
vt 0.153874 0.435808
vt 0.263298 0.437052
vt 0.050787 0.568707
vt 0.051548 0.501681
vt 0.052311 0.434655
vt 0.304602 0.437523
vt 0.303840 0.504549
vt 0.305296 0.376473
vt 0.263991 0.376002
vt 0.264813 0.303749
vt 0.306117 0.304220
vt 0.450478 0.378123
vt 0.482584 0.378489
vt 0.514692 0.378853
vt 0.513997 0.439903
vt 0.513235 0.506931
vt 0.611326 0.441010
vt 0.610564 0.508036
vt 0.658153 0.508578
vt 0.690997 0.508951
vt 0.690066 0.590734
vt 0.657223 0.590362
vt 0.689667 0.625881
vt 0.656824 0.625509
vt 0.777256 0.591727
vt 0.776857 0.626874
vt 0.822250 0.558439
vt 0.821468 0.627380
vt 0.612010 0.380856
vt 0.692442 0.381771
vt 0.691758 0.441925
vt 0.692986 0.333894
vt 0.726439 0.323008
vt 0.725769 0.382149
vt 0.777603 0.323588
vt 0.776929 0.382730
vt 0.612555 0.332980
vt 0.824242 0.383268
vt 0.907416 0.384214
vt 0.908697 0.504499
vt 0.822874 0.503523
vt 0.824916 0.324127
vt 0.613500 0.249900
vt 0.693931 0.250814
vt 0.845130 0.156505
vt 0.768151 0.155629
vt 0.768768 0.101446
vt 0.845745 0.102322
vt 0.844564 0.206053
vt 0.909433 0.206790
vt 0.908088 0.325074
vt 0.727257 0.251194
vt 0.938034 0.504832
vt 0.937834 0.522216
vt 0.982949 0.568369
vt 0.982270 0.628126
vt 0.778947 0.205308
vt 0.844651 0.198544
vt 0.909517 0.199281
vt 0.910612 0.103060
vt 0.909996 0.157243
vt 0.729193 0.155187
vt 0.556933 0.153227
vt 0.557848 0.072760
vt 0.729810 0.101004
vt 0.558430 0.021600
vt 0.730690 0.023557
vt 0.767673 0.197667
vt 0.404833 0.071022
vt 0.405414 0.019858
vt 0.248575 0.080343
vt 0.213174 0.082454
vt 0.213910 0.017681
vt 0.249283 0.018083
vt 0.248292 0.105237
vt 0.247426 0.181425
vt 0.212053 0.181023
vt 0.212919 0.104835
vt 0.144392 0.104054
vt 0.144645 0.081676
vt 0.143646 0.169543
vt 0.340063 0.074884
vt 0.339708 0.106276
vt 0.330732 0.106174
vt 0.331081 0.075420
vt 0.338839 0.182464
vt 0.329865 0.182362
vt 0.331722 0.019021
vt 0.340699 0.019123
vt 0.352923 0.074118
vt 0.353545 0.019270
vt 0.352555 0.106422
vt 0.351688 0.182611
vt 0.350728 0.267099
vt 0.337881 0.266952
vt 0.403557 0.183201
vt 0.402597 0.267687
vt 0.404422 0.107011
vt 0.402451 0.280360
vt 0.350584 0.279770
vt 0.401976 0.322303
vt 0.401710 0.345604
vt 0.349843 0.345013
vt 0.350107 0.321712
vt 0.350482 0.288826
vt 0.337633 0.288680
vt 0.337737 0.279624
vt 0.239652 0.287034
vt 0.239466 0.303463
vt 0.142135 0.302355
vt 0.143251 0.204256
vt 0.159679 0.204444
vt 0.224922 0.205185
vt 0.239869 0.205354
vt 0.239685 0.221784
vt 0.246225 0.287109
vt 0.246967 0.221866
vt 0.159754 0.197797
vt 0.224998 0.198540
vt 0.247228 0.198792
vt 0.239946 0.198709
vt 0.143327 0.197611
vt 0.246037 0.303537
vt 0.247153 0.205438
vt 0.328477 0.304474
vt 0.111541 0.169177
vt 0.112285 0.103690
vt 0.079588 0.204866
vt 0.080743 0.103332
vt 0.013126 0.204111
vt 0.014279 0.102576
vt 0.078135 0.332724
vt 0.011672 0.331968
vt 0.027970 0.434377
vt 0.000387 0.383101
vt 0.000970 0.331846
vt 0.097849 0.332949
vt 0.154454 0.384853
vt 0.336994 0.344868
vt 0.337258 0.321566
vt 0.402349 0.289416
vt 0.417838 0.289593
vt 0.417465 0.322479
vt 0.450963 0.335542
vt 0.483069 0.335905
vt 0.515175 0.336271
vt 0.483120 0.331507
vt 0.515226 0.331873
vt 0.417370 0.330760
vt 0.418320 0.247348
s 1
usemtl None.003
f 1/1/1 2/2/1 3/3/1 4/4/1
f 3/3/1 2/2/1 5/5/1 6/6/1
f 5/5/1 2/2/1 7/7/1 8/8/1
f 8/8/1 7/7/1 9/9/1 10/10/1
f 8/8/1 10/10/1 11/11/1 12/12/1
f 13/13/1 14/14/1 15/15/1 16/16/1
f 17/17/1 11/11/1 18/18/1 19/19/1
f 14/14/1 20/20/1 21/21/1 22/22/1
f 23/23/1 24/24/1 20/20/1 25/25/1
f 15/15/1 14/14/1 22/22/1 26/26/1
f 25/25/1 20/20/1 14/14/1 13/13/1
f 27/27/1 17/17/1 24/24/1 23/23/1
f 20/20/1 24/24/1 28/28/1 21/21/1
f 12/12/1 11/11/1 17/17/1 27/27/1
f 24/24/1 17/17/1 19/19/1 28/28/1
f 29/29/1 30/30/1 31/31/1 32/32/1
f 27/27/1 23/23/1 30/30/1 29/29/1
f 25/25/1 13/13/1 33/33/1 34/34/1
f 34/34/1 33/33/1 35/35/1 36/36/1
f 30/30/1 34/34/1 36/36/1 31/31/1
f 35/35/1 33/33/1 37/37/1 38/38/1
f 28/28/1 19/19/1 39/39/1 40/40/1
f 40/40/1 39/39/1 41/41/1 42/42/1
f 41/41/1 39/39/1 43/43/1 44/44/1
f 40/40/1 42/42/1 45/45/1 46/46/1
f 47/47/1 48/48/1 49/49/1 50/50/1
f 48/48/1 45/45/1 51/51/1 52/52/1
f 52/52/1 51/51/1 53/53/1 54/54/1
f 55/55/1 56/56/1 57/57/1 58/58/1
f 53/53/1 51/51/1 56/56/1 55/55/1
f 59/59/1 52/52/1 54/54/1 60/60/1
f 49/49/1 48/48/1 52/52/1 59/59/1
f 46/46/1 45/45/1 48/48/1 47/47/1
f 60/60/1 54/54/1 61/61/1 62/62/1
f 53/53/1 55/55/1 63/63/1 64/64/1
f 64/64/1 63/63/1 65/65/1 66/66/1
f 62/62/1 61/61/1 67/67/1 68/68/1
f 69/69/1 67/67/1 61/61/1 70/70/1
f 65/65/1 63/63/1 71/71/1 72/72/1
f 66/66/1 69/69/1 70/70/1 64/64/1
f 69/69/1 66/66/1 73/73/1 74/74/1
f 65/65/1 72/72/1 75/75/1 76/76/1
f 66/66/1 65/65/1 76/76/1 73/73/1
f 77/77/1 78/78/1 79/79/1 80/80/1
f 78/78/1 81/81/1 82/82/1 79/79/1
f 83/83/1 84/84/1 85/85/1 86/86/1
f 81/81/1 83/83/1 86/86/1 82/82/1
f 76/76/1 75/75/1 87/87/1 88/88/1
f 75/75/1 89/89/1 90/90/1 87/87/1
f 73/73/1 76/76/1 88/88/1 91/91/1
f 74/74/1 73/73/1 91/91/1 92/92/1
f 88/88/1 87/87/1 83/83/1 81/81/1
f 87/87/1 90/90/1 84/84/1 83/83/1
f 91/91/1 88/88/1 81/81/1 78/78/1
f 92/92/1 91/91/1 78/78/1 77/77/1
f 84/84/1 90/90/1 93/93/1 94/94/1
f 35/35/1 38/38/1 95/95/1 96/96/1
f 36/36/1 35/35/1 96/96/1 97/97/1
f 96/96/1 95/95/1 98/98/1 99/99/1
f 97/97/1 96/96/1 99/99/1 100/100/1
f 98/98/1 95/95/1 101/101/1 102/102/1
f 102/102/1 101/101/1 103/103/1 104/104/1
f 102/102/1 104/104/1 105/105/1 106/106/1
f 99/99/1 98/98/1 107/107/1 108/108/1
f 100/100/1 99/99/1 108/108/1 109/109/1
f 100/100/1 109/109/1 110/110/1 111/111/1
f 110/110/1 109/109/1 112/112/1 113/113/1
f 113/113/1 112/112/1 114/114/1 115/115/1
f 115/115/1 114/114/1 116/116/1 117/117/1
f 117/117/1 116/116/1 118/118/1 119/119/1
f 119/119/1 118/118/1 120/120/1 121/121/1
f 122/122/1 123/123/1 124/124/1 125/125/1
f 123/123/1 120/120/1 126/126/1 127/127/1
f 124/124/1 123/123/1 127/127/1 128/128/1
f 121/121/1 120/120/1 123/123/1 122/122/1
f 122/122/1 125/125/1 129/129/1 130/130/1
f 131/131/1 132/132/1 133/133/1 134/134/1
f 129/129/1 125/125/1 132/132/1 131/131/1
f 4/4/1 130/130/1 129/129/1 131/131/1 135/135/1 136/136/1 137/137/1 138/138/1 139/139/1 1/1/1
f 139/139/1 138/138/1 140/140/1 141/141/1
f 142/142/1 143/143/1 144/144/1 145/145/1
f 145/145/1 144/144/1 146/146/1 147/147/1
f 146/146/1 144/144/1 148/148/1 149/149/1
f 149/149/1 148/148/1 150/150/1 151/151/1
f 141/141/1 140/140/1 152/152/1 153/153/1 154/154/1 143/143/1 142/142/1
f 155/155/1 156/156/1 157/157/1 153/153/1
f 156/156/1 158/158/1 159/159/1 157/157/1
f 153/153/1 152/152/1 160/160/1 155/155/1
f 161/161/1 162/162/1 163/163/1 164/164/1
f 158/158/1 165/165/1 161/161/1 159/159/1
f 155/155/1 160/160/1 166/166/1 167/167/1
f 168/168/1 169/169/1 170/170/1 171/171/1
f 165/165/1 172/172/1 173/173/1 174/174/1
f 167/167/1 175/175/1 156/156/1 155/155/1
f 94/94/1 93/93/1 151/151/1 150/150/1 164/164/1 163/163/1 176/176/1 177/177/1 178/178/1 179/179/1
f 158/158/1 180/180/1 172/172/1 165/165/1
f 165/165/1 174/174/1 162/162/1 161/161/1
f 172/172/1 181/181/1 182/182/1 173/173/1
f 168/168/1 171/171/1 183/183/1 184/184/1
f 181/181/1 168/168/1 184/184/1 182/182/1
f 185/185/1 186/186/1 187/187/1 188/188/1
f 169/169/1 185/185/1 188/188/1 170/170/1
f 187/187/1 189/189/1 190/190/1 188/188/1
f 181/181/1 191/191/1 169/169/1 168/168/1
f 187/187/1 192/192/1 193/193/1 189/189/1
f 194/194/1 195/195/1 196/196/1 197/197/1
f 198/198/1 199/199/1 200/200/1 201/201/1
f 201/201/1 202/202/1 203/203/1 195/195/1
f 200/200/1 204/204/1 202/202/1 201/201/1
f 194/194/1 198/198/1 201/201/1 195/195/1
f 205/205/1 206/206/1 207/207/1 208/208/1
f 206/206/1 209/209/1 210/210/1 207/207/1
f 205/205/1 208/208/1 211/211/1 212/212/1
f 213/213/1 205/205/1 212/212/1 214/214/1
f 215/215/1 216/216/1 209/209/1 206/206/1
f 213/213/1 215/215/1 206/206/1 205/205/1
f 216/216/1 217/217/1 218/218/1 209/209/1
f 219/219/1 220/220/1 217/217/1 216/216/1
f 192/192/1 221/221/1 215/215/1 213/213/1
f 221/221/1 219/219/1 216/216/1 215/215/1
f 192/192/1 213/213/1 214/214/1 193/193/1
f 220/220/1 222/222/1 223/223/1 217/217/1
f 224/224/1 225/225/1 226/226/1 227/227/1
f 228/228/1 229/229/1 230/230/1 223/223/1
f 208/208/1 207/207/1 198/198/1 194/194/1
f 207/207/1 210/210/1 199/199/1 198/198/1
f 208/208/1 194/194/1 197/197/1 211/211/1
f 231/231/1 232/232/1 233/233/1 234/234/1 235/235/1 236/236/1 237/237/1 238/238/1
f 239/239/1 231/231/1 238/238/1 240/240/1
f 236/236/1 235/235/1 241/241/1 242/242/1
f 204/204/1 200/200/1 199/199/1 243/243/1 244/244/1 242/242/1 241/241/1 245/245/1
f 133/133/1 246/246/1 239/239/1 240/240/1 247/247/1 243/243/1 199/199/1 210/210/1 248/248/1 134/134/1
f 204/204/1 249/249/1 250/250/1 202/202/1
f 249/249/1 251/251/1 252/252/1 250/250/1
f 251/251/1 253/253/1 254/254/1 252/252/1
f 251/251/1 255/255/1 256/256/1 253/253/1
f 124/124/1 128/128/1 257/257/1 258/258/1 259/259/1 256/256/1 255/255/1 260/260/1 261/261/1
f 226/226/1 262/262/1 263/263/1 227/227/1
f 264/264/1 224/224/1 227/227/1 228/228/1
f 222/222/1 264/264/1 228/228/1 223/223/1
f 227/227/1 263/263/1 229/229/1 228/228/1
f 224/224/1 264/264/1 265/265/1 266/266/1
f 136/136/1 135/135/1 267/267/1 268/268/1
f 137/137/1 136/136/1 268/268/1 269/269/1
f 269/269/1 268/268/1 270/270/1 271/271/1
f 160/160/1 271/271/1 270/270/1 272/272/1 266/266/1 265/265/1 273/273/1 166/166/1
